# xmcd
#
# Track frame offsets: 
#        150
#        12340
#        23047
#        33903
#        43458
#        54699
#        65403
#        74608
#        85009
#        96732
#        108101
#        117769
#        126557
#        133400
#        145731
#        156134
#        166300
#        175630
#        186473
#        196087
#        208077
#        219711
#        231097
#        244348
#        257946
#
# Disc length: 3588 seconds
#
# Revision: 2
# Processed by: cddbd v1.5.2PL0 Copyright (c) Steve Scherf et al.
# Submitted via: ExactAudioCopyFreeDBPlugin 1.0
#
DISCID=7e0e0219
DTITLE=Various Artist - Sweethearts and Stolen Kisses - Dancehall Days  CD 3, 2
DTITLE=014
DYEAR=2014
DGENRE=Dance Hall
TTITLE0=Sam Cooke  - Twisting The Night Away
TTITLE1=Bruce Channel  - Hey Baby
TTITLE2=Frankie Valli and The Four Seasons  - Big Girls Don't Cry     MO
TTITLE2=NO
TTITLE3=Chubby Checker  - Dancin' Party
TTITLE4=Jerry Lee Lewis  - High School Confidential
TTITLE5=Bobby Rydell  - Wild One
TTITLE6=Twist Watch
TTITLE7=The String-A-Longs  - Dion and The Belmonts - I Wonder Why
TTITLE8=Bobby Day  - Rockin' Robin
TTITLE9=Chubby Checker  - The Fly
TTITLE10=The Chips  - Rubber Biscuit
TTITLE11=Johnny Burnette  - You're Sixteen    MONO
TTITLE12=Elvis Presley  - Party
TTITLE13=Jackie Wilson  - Reet Petite
TTITLE14=The Regents  - Barbara Ann
TTITLE15=The Marcels  - Blue Moon
TTITLE16=The Beach Boys  - Surfin' Safari
TTITLE17=Big Bopper  - Chantilly Lace
TTITLE18=The Diamonds  - Little Darlin'
TTITLE19=Little Richard  - Slippin' and Slidin'
TTITLE20=Ike and Tina Turner  - The Rooster
TTITLE21=Chubby Checker and Dee Dee Sharp  - Slow Twistin'
TTITLE22=Mickey and Sylvia  - Love Is Strange
TTITLE23=The Miracles  - You Really Got A Hold On Me
TTITLE24=The Drifters  - Save The Last Dance For Me   MONO
EXTD=
EXTT0=
EXTT1=
EXTT2=
EXTT3=
EXTT4=
EXTT5=
EXTT6=
EXTT7=
EXTT8=
EXTT9=
EXTT10=
EXTT11=
EXTT12=
EXTT13=
EXTT14=
EXTT15=
EXTT16=
EXTT17=
EXTT18=
EXTT19=
EXTT20=
EXTT21=
EXTT22=
EXTT23=
EXTT24=
PLAYORDER=
